<svg id="svg" version="1.1" xmlns="http://www.w3.org/2000/svg" xmlns:xlink="http://www.w3.org/1999/xlink" width="400" height="400" viewBox="0, 0, 400,400"><g id="svgg"><path id="path0" d="M296.747 224.998 C 275.144 225.810,260.244 236.347,257.594 252.687 C 257.137 255.508,257.149 270.053,257.611 272.747 C 259.514 283.841,266.785 291.334,280.000 295.822 C 284.627 297.393,286.408 297.746,308.373 301.445 C 330.650 305.196,331.992 305.556,335.176 308.630 C 337.710 311.077,338.253 313.192,338.086 319.977 C 337.873 328.612,334.205 332.307,324.053 334.115 C 321.780 334.520,297.952 334.525,295.787 334.121 C 286.636 332.415,280.967 325.282,280.961 315.467 L 280.960 314.027 268.480 314.027 L 256.000 314.027 256.002 316.000 C 256.025 338.331,269.788 353.754,292.029 356.373 C 295.969 356.836,322.879 356.835,327.284 356.370 C 344.422 354.564,357.097 346.340,361.584 334.116 C 363.185 329.755,363.200 329.598,363.199 317.653 L 363.197 306.880 362.612 304.747 C 359.763 294.367,350.813 287.297,335.360 283.220 C 332.778 282.539,330.938 282.198,311.680 278.828 C 302.939 277.298,295.115 275.899,294.293 275.718 C 286.897 274.095,283.350 271.079,282.640 265.807 C 281.110 254.456,285.904 248.385,297.137 247.446 C 301.713 247.064,323.206 247.301,324.800 247.751 C 331.347 249.602,335.998 256.017,336.000 263.200 L 336.000 264.320 348.480 264.320 L 360.960 264.320 360.959 262.667 C 360.953 244.047,347.822 228.791,329.067 225.613 C 325.205 224.959,307.006 224.613,296.747 224.998 M213.546 268.213 C 213.545 311.452,213.495 314.304,212.674 317.862 C 210.619 326.772,206.528 331.961,200.000 333.936 C 197.818 334.597,181.545 334.642,178.987 333.995 C 170.957 331.964,165.333 322.756,165.333 311.640 L 165.333 310.187 152.853 310.187 L 140.373 310.187 140.373 311.977 C 140.373 335.903,155.281 353.927,177.173 356.469 C 180.261 356.828,200.369 356.761,203.239 356.382 C 222.708 353.814,235.850 339.421,238.404 317.868 C 238.674 315.595,238.720 308.667,238.720 270.775 L 238.720 226.347 226.133 226.347 L 213.547 226.347 213.546 268.213 " stroke="none" fill="#040404" fill-rule="evenodd"></path><path id="path1" d="M0.000 200.000 L 0.000 400.000 200.000 400.000 L 400.000 400.000 400.000 200.000 L 400.000 0.000 200.000 0.000 L 0.000 0.000 0.000 200.000 M326.613 225.161 C 347.105 227.494,361.158 243.091,361.173 263.520 L 361.173 264.533 348.609 264.533 C 334.444 264.533,335.787 264.723,335.787 262.721 C 335.787 255.585,330.772 249.184,324.093 247.792 C 321.841 247.323,298.020 247.313,295.147 247.781 C 289.838 248.644,286.027 250.901,283.978 254.397 C 282.175 257.470,282.123 265.914,283.886 269.281 C 286.309 273.909,288.082 274.533,309.460 278.287 C 317.897 279.769,326.384 281.266,328.320 281.616 C 349.509 285.438,360.846 293.627,363.103 306.741 C 363.660 309.978,363.725 325.131,363.196 328.420 C 360.754 343.594,348.184 353.743,328.533 356.408 C 322.090 357.281,294.195 357.016,288.640 356.028 C 268.194 352.393,255.798 337.008,255.787 315.253 L 255.787 313.813 268.373 313.813 C 278.300 313.813,280.960 313.870,280.961 314.080 C 280.992 325.393,286.995 332.970,296.793 334.062 C 299.465 334.360,319.542 334.367,322.665 334.071 C 330.259 333.350,335.529 330.244,337.332 325.424 C 337.904 323.895,338.156 315.811,337.703 313.502 C 336.854 309.166,333.210 306.265,326.717 304.755 C 326.012 304.591,317.948 303.199,308.797 301.662 C 299.647 300.125,290.864 298.624,289.280 298.327 C 269.657 294.646,258.884 285.542,257.295 271.295 C 256.999 268.639,257.000 256.248,257.297 253.760 C 259.167 238.063,272.021 227.527,292.160 225.182 C 295.713 224.769,323.018 224.752,326.613 225.161 M238.931 270.347 C 238.929 316.684,238.924 316.935,237.983 321.762 C 234.135 341.491,221.780 353.916,203.413 356.527 C 200.662 356.918,179.280 356.910,176.320 356.516 C 155.901 353.803,141.529 337.340,140.478 315.460 C 140.415 314.144,140.317 312.419,140.260 311.627 L 140.157 310.187 152.722 310.187 C 163.983 310.187,165.301 310.222,165.417 310.524 C 165.488 310.710,165.547 311.550,165.548 312.391 C 165.557 322.892,171.514 332.276,179.200 333.895 C 181.179 334.311,197.987 334.314,199.680 333.898 C 205.586 332.446,210.026 327.262,212.160 319.329 C 213.366 314.843,213.333 316.231,213.333 269.429 L 213.333 226.347 226.133 226.347 L 238.933 226.347 238.931 270.347 " stroke="none" fill="#f6fa05" fill-rule="evenodd"></path><path id="path2" d="M213.438 267.840 C 213.438 290.720,213.463 300.048,213.493 288.570 C 213.524 277.091,213.524 258.371,213.493 246.970 C 213.463 235.568,213.438 244.960,213.438 267.840 M304.907 247.413 C 307.811 247.447,312.563 247.447,315.467 247.413 C 318.371 247.380,315.995 247.352,310.187 247.352 C 304.379 247.352,302.003 247.380,304.907 247.413 M282.536 261.973 C 282.536 263.440,282.570 264.040,282.611 263.307 C 282.653 262.573,282.653 261.373,282.611 260.640 C 282.570 259.907,282.536 260.507,282.536 261.973 M361.009 263.893 C 361.009 264.304,361.053 264.472,361.107 264.267 C 361.161 264.061,361.161 263.725,361.107 263.520 C 361.053 263.315,361.009 263.483,361.009 263.893 M356.160 293.760 C 356.618 294.229,357.041 294.613,357.100 294.613 C 357.159 294.613,356.832 294.229,356.373 293.760 C 355.915 293.291,355.492 292.907,355.433 292.907 C 355.375 292.907,355.702 293.291,356.160 293.760 M238.774 313.280 C 238.776 313.749,238.820 313.916,238.871 313.651 C 238.922 313.385,238.920 313.001,238.867 312.798 C 238.813 312.594,238.771 312.811,238.774 313.280 M338.006 318.720 C 338.006 320.539,338.039 321.283,338.079 320.373 C 338.119 319.464,338.119 317.976,338.079 317.067 C 338.039 316.157,338.006 316.901,338.006 318.720 M354.873 344.587 L 353.600 345.920 354.933 344.647 C 356.172 343.464,356.364 343.253,356.207 343.253 C 356.174 343.253,355.574 343.853,354.873 344.587 M185.547 356.853 C 187.923 356.887,191.811 356.887,194.187 356.853 C 196.563 356.819,194.619 356.791,189.867 356.791 C 185.115 356.791,183.171 356.819,185.547 356.853 M303.535 356.853 C 306.858 356.886,312.234 356.886,315.482 356.853 C 318.729 356.820,316.011 356.793,309.440 356.793 C 302.869 356.793,300.212 356.820,303.535 356.853 " stroke="none" fill="#896904" fill-rule="evenodd"></path><path id="path3" d="M296.907 225.004 C 297.171 225.055,297.603 225.055,297.867 225.004 C 298.131 224.953,297.915 224.911,297.387 224.911 C 296.859 224.911,296.643 224.953,296.907 225.004 M322.082 225.004 C 322.348 225.055,322.732 225.053,322.936 225.000 C 323.140 224.947,322.923 224.905,322.453 224.907 C 321.984 224.910,321.817 224.953,322.082 225.004 M238.825 269.440 C 238.825 293.200,238.850 302.920,238.880 291.040 C 238.910 279.160,238.910 259.720,238.880 247.840 C 238.850 235.960,238.825 245.680,238.825 269.440 M298.616 247.404 C 298.881 247.455,299.265 247.453,299.469 247.400 C 299.673 247.347,299.456 247.305,298.987 247.307 C 298.517 247.310,298.350 247.353,298.616 247.404 M257.161 262.720 C 257.161 266.123,257.190 267.485,257.226 265.747 C 257.262 264.009,257.262 261.225,257.226 259.560 C 257.190 257.895,257.161 259.317,257.161 262.720 M342.255 264.480 C 345.754 264.513,351.418 264.513,354.842 264.480 C 358.266 264.447,355.403 264.420,348.480 264.420 C 341.557 264.420,338.756 264.447,342.255 264.480 M213.394 310.293 C 213.396 310.880,213.437 311.095,213.486 310.770 C 213.535 310.446,213.534 309.966,213.484 309.704 C 213.433 309.441,213.393 309.707,213.394 310.293 M363.403 317.760 C 363.403 321.867,363.431 323.516,363.466 321.426 C 363.501 319.336,363.501 315.976,363.466 313.960 C 363.431 311.943,363.403 313.653,363.403 317.760 M165.383 313.173 C 165.383 313.584,165.427 313.752,165.480 313.547 C 165.534 313.341,165.534 313.005,165.480 312.800 C 165.427 312.595,165.383 312.763,165.383 313.173 M255.821 314.613 C 255.854 315.399,255.857 315.401,255.941 314.722 L 256.027 314.030 268.547 313.973 L 281.067 313.917 268.427 313.865 L 255.787 313.813 255.821 314.613 M185.640 334.453 C 187.597 334.488,190.861 334.488,192.893 334.453 C 194.925 334.418,193.323 334.389,189.333 334.389 C 185.344 334.389,183.682 334.418,185.640 334.453 M304.373 334.453 C 307.219 334.487,311.875 334.487,314.720 334.453 C 317.565 334.420,315.237 334.392,309.547 334.392 C 303.856 334.392,301.528 334.420,304.373 334.453 M225.914 345.547 L 224.533 346.987 225.973 345.606 C 227.311 344.324,227.511 344.107,227.354 344.107 C 227.321 344.107,226.673 344.755,225.914 345.547 " stroke="none" fill="#745c04" fill-rule="evenodd"></path><path id="path4" d="M265.273 236.853 L 264.000 238.187 265.333 236.913 C 266.572 235.731,266.764 235.520,266.607 235.520 C 266.574 235.520,265.974 236.120,265.273 236.853 M361.018 262.400 C 361.018 262.928,361.060 263.144,361.111 262.880 C 361.161 262.616,361.161 262.184,361.111 261.920 C 361.060 261.656,361.018 261.872,361.018 262.400 M255.840 316.907 C 255.843 317.376,255.887 317.543,255.938 317.278 C 255.989 317.012,255.987 316.628,255.933 316.424 C 255.880 316.220,255.838 316.437,255.840 316.907 M205.747 330.720 L 205.120 331.413 205.813 330.787 C 206.195 330.442,206.507 330.130,206.507 330.093 C 206.507 329.929,206.331 330.074,205.747 330.720 M153.067 345.387 C 153.882 346.208,154.597 346.880,154.655 346.880 C 154.714 346.880,154.095 346.208,153.280 345.387 C 152.465 344.565,151.750 343.893,151.691 343.893 C 151.633 343.893,152.252 344.565,153.067 345.387 M198.667 356.840 C 198.872 356.894,199.208 356.894,199.413 356.840 C 199.619 356.787,199.451 356.743,199.040 356.743 C 198.629 356.743,198.461 356.787,198.667 356.840 M295.947 356.846 C 296.269 356.895,296.797 356.895,297.120 356.846 C 297.443 356.797,297.179 356.757,296.533 356.757 C 295.888 356.757,295.624 356.797,295.947 356.846 M321.656 356.844 C 321.921 356.895,322.305 356.893,322.509 356.840 C 322.713 356.787,322.496 356.745,322.027 356.747 C 321.557 356.750,321.390 356.793,321.656 356.844 " stroke="none" fill="#c99c04" fill-rule="evenodd"></path></g></svg>